HIERARCHY
ROOT hip
{
	OFFSET 0.000000 0.000000 0.000000 
	CHANNELS 6 Xposition Yposition Zposition Xrotation Zrotation Yrotation
	JOINT abdomen
	{
		OFFSET 0.000000 3.402643 0.000000 
		CHANNELS 3 Xrotation Zrotation Yrotation
		JOINT chest
		{
			OFFSET 0.000000 8.438565 -0.680529 
			CHANNELS 3 Xrotation Zrotation Yrotation
			JOINT neck
			{
				OFFSET 0.000000 10.207942 -0.272212 
				CHANNELS 3 Xrotation Zrotation Yrotation
				JOINT head
				{
					OFFSET 0.000000 3.130431 0.000000 
					CHANNELS 3 Xrotation Zrotation Yrotation
					End Site
					{
						OFFSET 0.000000 3.130435 0.000000 
					}
				}
			}
			JOINT lCollar
			{
				OFFSET 3.470700 6.669187 -0.816635 
				CHANNELS 3 Yrotation Zrotation Xrotation
				JOINT lShldr
				{
					OFFSET 3.198488 0.000000 0.000000 
					CHANNELS 3 Zrotation Yrotation Xrotation
					JOINT lForeArm
					{
						OFFSET 10.139888 0.000000 0.000000 
						CHANNELS 3 Yrotation Zrotation Xrotation
						JOINT lHand
						{
							OFFSET 8.370511 0.000000 0.000000 
							CHANNELS 3 Zrotation Yrotation Xrotation
							End Site
							{
								OFFSET 4.083176 0.000000 0.000000 
							}
						}
					}
				}
			}
			JOINT rCollar
			{
				OFFSET -3.470700 6.669187 -0.816635 
				CHANNELS 3 Yrotation Zrotation Xrotation
				JOINT rShldr
				{
					OFFSET -3.198488 0.000000 0.000000 
					CHANNELS 3 Zrotation Yrotation Xrotation
					JOINT rForeArm
					{
						OFFSET -10.139888 0.000000 0.000000 
						CHANNELS 3 Yrotation Zrotation Xrotation
						JOINT rHand
						{
							OFFSET -8.370511 0.000000 0.000000 
							CHANNELS 3 Zrotation Yrotation Xrotation
							End Site
							{
								OFFSET -4.083176 0.000000 0.000000 
							}
						}
					}
				}
			}
		}
	}
	JOINT lThigh
	{
		OFFSET 5.308129 -1.633274 1.361059 
		CHANNELS 3 Xrotation Zrotation Yrotation
		JOINT lShin
		{
			OFFSET -2.041588 -20.007561 0.000000 
			CHANNELS 3 Xrotation Zrotation Yrotation
			JOINT lFoot
			{
				OFFSET 0.000000 -19.190928 -1.224953 
				CHANNELS 3 Xrotation Yrotation Zrotation
				End Site
				{
					OFFSET 0.000000 -2.449906 4.627600 
				}
			}
		}
	}
	JOINT rThigh
	{
		OFFSET -5.308129 -1.633274 1.361059 
		CHANNELS 3 Xrotation Zrotation Yrotation
		JOINT rShin
		{
			OFFSET 2.041588 -20.007561 0.000000 
			CHANNELS 3 Xrotation Zrotation Yrotation
			JOINT rFoot
			{
				OFFSET 0.000000 -19.190928 -1.224953 
				CHANNELS 3 Xrotation Yrotation Zrotation
				End Site
				{
					OFFSET 0.000000 -2.449906 4.627600 
				}
			}
		}
	}
}
MOTION
Frames: 14
Frame Time: 0.033333
13.273796 46.439907 -6.522444 -1.835937 -2.675781 -36.035828 21.856516 -17.076387 -12.730080 8.671876 10.097657 14.347415 -8.567213 0.778862 2.341579 30.986328 -8.085938 2.509766 2.000000 -2.000000 0.000000 -56.210938 -24.619141 -12.562661 -105.773628 0.032173 5.488482 5.724629 -19.893396 11.049786 -2.000000 2.000000 0.000000 71.533203 62.812504 30.009764 81.309799 -0.734541 4.976042 4.626446 14.332627 0.676941 -22.327955 18.529028 6.836679 28.483616 -3.546054 -7.012445 0.387451 0.371242 -8.902979 15.462530 -19.410885 -24.154028 22.417875 3.539153 -10.984410 -12.030311 -2.207974 15.623103 
13.666426 46.624901 -5.920788 -3.437500 -3.896484 -40.703785 21.856516 -17.076387 -12.730080 12.978518 11.093749 15.431567 -8.351010 1.567030 3.832562 32.949223 -5.761718 4.032224 2.000000 -2.000000 0.000000 -58.066402 -13.125001 -18.185810 -108.254288 -0.056151 5.484126 6.668350 -21.070038 8.677188 -2.000000 2.000000 0.000000 66.777344 50.263672 27.341497 87.399620 -0.620363 5.188334 0.580309 15.128452 -6.401168 -22.797523 19.106255 5.400552 34.429207 -3.302432 -6.181627 5.430850 0.181144 -10.106612 14.567313 -21.034100 -24.942410 21.154898 3.606530 -6.612749 -9.680937 -1.895172 22.672495 
14.389896 45.944843 -5.287547 -4.208984 -3.222656 -45.772030 21.856516 -17.076387 -12.730080 15.517578 12.412110 16.193508 -8.185335 2.789852 6.246648 34.804691 0.371094 6.689509 2.000000 -2.000000 0.000000 -60.273434 2.822266 -25.419441 -110.959724 -0.154821 5.470624 9.001913 -21.131922 5.320082 -2.000000 2.000000 0.000000 63.105469 40.400391 24.195786 90.366699 -0.547762 5.280820 -2.174418 16.027275 -6.128078 -26.413752 19.363512 2.481429 41.375957 -3.019900 -9.996787 7.907683 -1.706652 -11.376981 11.868539 -25.385578 -25.569300 24.062788 3.518221 -5.220553 -12.221328 -2.552029 23.410583 
14.914158 45.133785 -4.141620 -4.287109 -3.144531 -56.338425 21.856516 -17.076387 -12.730080 17.255859 12.451172 16.632965 -7.926172 4.146873 9.176718 35.341801 5.546875 9.922820 2.000000 -2.000000 0.000000 -63.808590 26.542969 -35.610870 -114.154358 -0.314964 5.411987 8.891168 -21.015623 8.333841 -2.000000 2.000000 0.000000 58.984379 36.406250 25.494078 95.081680 -0.417278 5.386636 -3.364012 15.976228 -5.116652 -23.334169 21.566484 4.233339 41.089539 -3.010395 -7.465549 -1.188898 -1.023806 -13.128722 8.153593 -30.712143 -25.096756 23.775085 3.607693 5.552308 -14.790536 -2.433820 22.437735 
15.081276 44.598202 -3.507748 -1.142578 -5.576172 -71.944305 21.856516 -17.076387 -12.730080 20.546875 10.888672 17.267469 -7.304634 6.408477 14.263798 34.501953 10.458985 15.361328 2.000000 -2.000000 0.000000 -69.931641 46.445309 -47.666012 -106.688599 0.139223 5.638397 10.344178 -21.706074 24.315742 -2.000000 2.000000 0.000000 59.648438 42.714844 30.397251 94.867401 -0.415484 5.357400 -0.984676 15.910870 -3.897309 -14.714209 29.483549 11.899572 38.419472 -3.097651 -3.718515 -8.327275 0.748670 -18.084923 -1.573970 -30.040682 -13.902348 25.559488 3.619246 11.801064 -14.022938 -0.785768 21.442886 
16.265839 43.638268 -2.622695 1.748047 -3.046875 -78.945831 21.856516 -17.076387 -12.730080 20.859377 12.998048 17.648682 -7.145733 7.175352 15.735899 30.888674 11.953125 16.798901 2.000000 -2.000000 0.000000 -43.906250 42.060547 -34.407520 -84.549767 0.634483 5.099322 6.096116 -18.710068 8.285061 -2.000000 2.000000 0.000000 55.371094 41.982422 29.882813 98.469063 -0.343487 5.459633 -3.662334 16.278181 -4.530657 -18.096012 31.621050 10.978226 44.383945 -2.807611 -1.707133 -16.119061 1.774150 -19.241810 -12.382099 -29.332245 -6.439339 28.912607 3.525480 13.054781 -13.367119 -0.429571 22.404585 
17.246532 43.144459 -2.298900 3.291016 -2.626953 -79.873497 21.856516 -17.076387 -12.730080 21.152346 14.189454 18.107862 -6.925260 7.789670 16.914177 28.642580 17.958984 17.717857 2.000000 -2.000000 0.000000 -12.431640 17.724611 -29.889605 -72.401398 0.701550 4.596442 6.781138 -21.528374 23.589525 -2.000000 2.000000 0.000000 55.244141 39.003906 23.541304 96.703377 -0.318011 5.363371 -2.094480 15.539088 -1.260360 -23.075119 32.468475 8.866790 49.140812 -2.529699 2.784245 -16.443808 0.859619 -19.589457 -16.626995 -27.161402 -1.853709 31.898178 3.339657 6.486771 -12.250689 -0.125754 24.050547 
17.763119 42.781155 -2.102334 3.574219 -3.173828 -75.488823 21.856516 -17.076387 -12.730080 21.289064 15.136719 18.352156 -6.957484 7.675859 16.603960 25.273439 21.259766 16.751589 2.000000 -2.000000 0.000000 12.724610 -16.943357 -41.770424 -59.367847 0.486873 3.964166 11.516671 -16.293913 25.082642 -2.000000 2.000000 0.000000 56.611328 29.443357 17.382811 97.932343 -0.293554 5.443127 -3.683860 16.834763 -3.428246 -27.349726 31.704020 4.931139 51.301533 -2.432899 -0.478549 -17.129908 0.624829 -18.041719 -15.085979 -27.691204 -2.986297 33.159649 3.251476 3.786633 -13.176439 0.173680 25.410980 
18.140142 42.677711 -1.915582 2.744141 -2.021484 -71.025734 21.856516 -17.076387 -12.730080 21.210938 14.570312 17.998047 -7.276832 6.749273 14.569145 21.708984 17.294922 14.329074 2.000000 -2.000000 0.000000 26.455078 -41.152344 -58.027340 -53.144840 0.280336 3.624662 14.422168 -14.304933 16.879768 -2.000000 2.000000 0.000000 57.402344 25.791016 12.943703 97.707138 -0.392822 5.466392 -2.442399 16.202682 -5.423233 -31.101786 28.562794 2.176014 51.691048 -2.384151 -1.084671 -16.528278 0.361950 -16.951077 -13.543003 -30.296900 -6.896166 32.900749 3.256210 3.866902 -13.352234 0.123406 26.083002 
17.919037 43.095379 -1.539437 3.349610 -1.113281 -72.695503 21.856516 -17.076387 -12.730080 18.789063 12.919922 17.101791 -7.266096 6.985182 15.376525 21.093752 13.339845 15.490536 2.000000 -2.000000 0.000000 20.810547 -49.326172 -51.435547 -58.901173 0.402962 3.871463 7.441129 -14.951838 16.346140 -2.000000 2.000000 0.000000 56.298832 23.857422 13.441450 98.781761 -0.323394 5.451081 -3.902940 17.068502 -1.545949 -29.879820 29.049580 4.025903 50.355732 -2.454569 -0.604185 -16.585396 0.552325 -16.806459 -12.332115 -30.206289 -9.675292 28.349451 3.466674 6.547409 -10.856318 -0.172689 25.410181 
17.498846 43.663818 -1.782818 5.400391 -0.068359 -77.509781 21.856516 -17.076387 -12.730080 15.039065 10.791016 15.910032 -6.914647 8.328721 18.889311 23.525389 10.058594 19.658207 2.000000 -2.000000 0.000000 0.234375 -43.720699 -34.316402 -66.070091 0.633183 4.277940 9.887700 -19.034386 24.743484 -2.000000 2.000000 0.000000 56.542969 24.990234 16.322483 99.337837 -0.325189 5.480319 -3.730070 15.731111 -6.651065 -26.880066 32.737156 8.043397 47.734589 -2.610188 -0.105478 -16.158825 0.912559 -17.588617 -13.650873 -26.607201 -7.597826 24.078360 3.647972 6.990740 -8.437395 0.048457 24.467010 
16.754736 44.281456 -1.681137 4.384766 -0.283203 -75.126968 21.856516 -17.076387 -12.730080 13.750001 10.253906 15.548614 -7.160203 7.696647 17.503143 23.701176 8.271484 18.292423 2.000000 -2.000000 0.000000 -20.449217 -41.269531 -29.303314 -71.106033 0.535473 4.440416 4.917597 -17.572741 4.824217 -2.000000 2.000000 0.000000 55.029297 22.783205 17.083860 100.304276 -0.297144 5.501601 -4.391815 15.123536 -2.120994 -24.654711 30.238928 7.258506 44.110416 -2.794809 1.963737 -14.629524 0.634026 -17.773777 -9.013384 -27.115845 -11.905088 21.119122 3.726402 5.315348 -7.044947 -0.700952 24.156158 
15.962934 44.578690 -1.942387 3.652344 -0.312500 -69.296928 21.856516 -17.076387 -12.730080 11.972658 10.517579 15.148267 -7.419710 7.076926 16.146915 24.101564 9.140626 16.749599 2.000000 -2.000000 0.000000 -37.675781 -40.371094 -28.902805 -75.603432 0.578406 4.662677 5.314550 -17.512461 7.142848 -2.000000 2.000000 0.000000 53.369144 25.791016 16.019876 98.751701 -0.355029 5.488272 -3.538093 14.442572 -4.003808 -25.379879 28.240778 6.522773 42.136417 -2.899899 0.990521 -12.911715 0.760119 -16.538465 -4.786244 -27.208532 -14.971246 21.472328 3.648667 1.125743 -8.364673 -1.413093 24.564165 
14.961976 44.538296 -2.509435 1.806641 -2.392578 -61.152752 21.856516 -17.076387 -12.730080 12.861328 10.419923 15.353330 -7.860868 5.117161 11.722720 23.017578 7.460937 12.032518 2.000000 -2.000000 0.000000 -49.150391 -42.265625 -26.100317 -81.555801 0.563467 4.898358 4.997444 -17.660305 3.052198 -2.000000 2.000000 0.000000 53.955074 27.509764 15.634764 102.501564 -0.199672 5.507573 -4.592213 13.208734 -1.664226 -25.223406 26.990646 6.771447 41.119873 -2.971167 -3.597596 -11.187165 0.633668 -14.438053 2.234060 -26.871153 -17.344027 23.361917 3.569054 -1.738899 -12.517512 -2.521568 25.392435 
